_________________________  Visit us at _________________________
  
http://p2pdl.com  ____________________________  http://p2pdl.com

 
http://i.imgur.com/KBO4D.jpg


Release Title: Weekend (2011)

					
Genre: Drama | Romance
IMDb Rating: 7.6/10  
http://cinemahouse.in/movie/189/Weekend


Plot: After a drunken house party with his straight mates, Russell heads out to a gay club. Just before closing time he picks up Glen but what's expected to be just a one-night stand becomes something else, something special.


Director:  Andrew Haigh


Stars: Tom Cullen, Chris New and Kieran Hardcastle.


General
Format                         : Matroska
Format version                 : Version 2
File size                      : 691 MiB
Duration                       : 1h 37mn
Overall bit rate               : 993 Kbps
Release Name                   : Weekend 2011 720p BRRip x264 AC3 - ViZNU [P2PDL]
Source                         : 720p.BluRay

Video
ID                             : 1
Format                         : AVC
Format/Info                    : Advanced Video Codec
Codec ID                       : V_MPEG4/ISO/AVC
Duration                       : 1h 37mn
Bit rate                       : 864 Kbps
Width                          : 1 280 pixels
Height                         : 688 pixels
Display aspect ratio           : 1.85:1
Frame rate                     : 23.976 fps
Color space                    : YUV
Chroma subsampling             : 4:2:0
Bit depth                      : 8 bits
Stream size                    : 588 MiB (85%)
Default                        : Yes


Audio
ID                             : 2
Format                         : AC-3
Format/Info                    : Audio Coding 3
Mode extension                 : CM (complete main)
Format settings, Endianness    : Big
Codec ID                       : A_AC3
Duration                       : 1h 37mn
Bit rate mode                  : Constant
Bit rate                       : 128 Kbps
Channel(s)                     : 2 channels
Channel positions              : Front: L R
Sampling rate                  : 44.1 KHz
Stream size                    : 89.0 MiB (13%)
Language                       : English
Default                        : Yes


Subtitle                       : No


Screens:
 
http://i.imgbox.com/abigpiw0.png 
http://i.imgbox.com/ablE1Hw0.png 
http://i.imgbox.com/actTpM9h.png 
http://i.imgbox.com/acdIqudl.png 
http://i.imgbox.com/adlykBif.png 
http://i.imgbox.com/acnIQzAO.png 
http://i.imgbox.com/adf1hkJr.png 
http://i.imgbox.com/adlQlnbE.png 
http://i.imgbox.com/adh5XXJ8.png 
http://i.imgbox.com/acy9t3aS.png



------------------------------------------------------------------------


Recommend you to use VLC player. Check sample to be sure. Enjoy!


Greets to: srkfan, Vitamin_X, MgB, Feel_Free, staff members at ExtraTorrent, TPB,KAT, 1337x, PublicHD, Ahashare, SilverTorrent, TorrentMafia, P2PDL, and all others


Encoder Notes: Looking For Early Access To Anything You Can Provide DVDScr, R5, DVDRips, BluRay, Direct Audio, Early Music Releases, Seedboxes, Links, Dedicated Servers anything u can provide, Advance / Promo CDs/DVDs. If You Got anything to offer contact me at "contact@tinym.eu"
